<?xml version="1.0" encoding="utf-8"?>
<!-- Generator: Adobe Illustrator 21.1.0, SVG Export Plug-In . SVG Version: 6.00 Build 0)  -->
<svg version="1.1" id="meteoblue_logo" xmlns="http://www.w3.org/2000/svg" xmlns:xlink="http://www.w3.org/1999/xlink" x="0px"
	 y="0px" width="425.2px" height="141.7px" viewBox="0 0 425.2 141.7" style="enable-background:new 0 0 425.2 141.7;"
	 xml:space="preserve">
<style type="text/css">
	.st0{fill:#9D9D9C;}
	.st1{fill:#9D9D9C;stroke:#9D9D9C;stroke-width:1.0362;stroke-miterlimit:10;}
</style>
<path id="letter_m" class="st0" d="M49.3,36.6c3.8-3.5,8.3-6.4,16-5.7c4.5,0.5,8.7,3.4,10.7,6.6c2.5,3.9,2.6,9.5,2.5,15.6
	c0,7.6,0,15.9,0,23c-3.1,0-6,0-9,0c0-6.2-0.1-15.4-0.1-22.7c0-2,0.1-3.8-0.1-5.4c-0.5-4.5-3.7-8.2-8.8-8.2c-6.8,0-8.7,5.1-9.1,12.2
	c0,7.7,0.1,17.1,0.1,24.1c-3,0-6,0-9,0c0-7.5,0.1-16.2,0.1-23.7c0-1.4,0-2.7-0.1-3.9C42,42.2,35.4,37.3,29,41.3
	c-0.9,0.6-1.9,1.5-2.4,2.4c-1.7,2.1-1.5,5.7-1.6,9.6c-0.1,2.3,0.1,18.6,0.1,22.9c-3.1,0-6.1,0-9.2,0c0-11.2,0-22,0-30.8
	c0-8,7.7-13.7,15.2-14.4C39.3,30.1,45.1,32.7,49.3,36.6z"/>
<path id="letter_e1" class="st0" d="M125.3,57.2c-9.3,0-18.6,0-27.9,0c-1.3,11.9,14.5,13.9,20.5,6.8c2.3,1.8,4.7,3.4,6.4,5.7
	c-5.9,8.4-22.9,9-30,2.1c-5.6-5.4-7.2-16-5.5-25c1.8-9.3,8.2-16.9,19.9-16C121,31.9,126.6,42.4,125.3,57.2z M105,39.5
	c-4.8,0.6-7.3,4.7-7.6,10.1c6.2,0,12.5,0,18.7,0C115.9,43,111.9,38.6,105,39.5z"/>
<path id="letter_t" class="st0" d="M144.1,17.8c0,4.5,0,9,0,13.5c2.1,0,4.5,0,6.6,0c0,2,0,4.7,0,7c-2.1,0-4.5,0-6.6,0
	c0,4,0,9.3,0,14.7c0,2.7,0,5.4,0,7.9c0,2.4-0.3,5.4,1.2,6.4c1.1,0.8,3.6,0.5,5.4,0.5c0,2.8,0,5.5,0,8.3c-8.9,0.7-15.1-1.8-15.6-9
	c-0.3-4.4-0.1-9.3-0.1-14.4c0.2-5,0.1-9.8,0.1-14.5c-1.6,0-3.1,0-4.7,0c0-2.4,0-5,0-7c1.4,0,3.2,0,4.7,0c0-4,0-9.4,0-13.5
	C138.1,17.8,141.2,17.8,144.1,17.8z"/>
<path id="letter_e2" class="st0" d="M193.9,57.2c-9.3,0-18.6,0-27.9,0c-0.8,11.9,14.3,14,20.5,6.8c2.3,1.8,4.7,3.4,6.4,5.7
	c-4,4.2-8.7,7-16.2,7c-13.3,0-19.8-9.1-19.9-22.6c-0.1-12.6,5.9-24.6,20.9-23.2C189.7,32,195.3,42.4,193.9,57.2z M173.6,39.5
	c-4.8,0.7-7.3,4.7-7.6,10.1c6.3,0,12.6,0,18.9,0C184.6,43,180.7,38.5,173.6,39.5z"/>
<path id="letter_o" class="st0" d="M216.9,31.1c9.5-1.1,16.6,3.7,19.3,9.7c2.5,5.5,2.7,20.8-0.2,26.3c-7.1,13.4-27.9,12-33.1-0.8
	c-3.1-7.4-2.1-20.7,0.4-25.9C205.6,35.6,210.5,31.9,216.9,31.1z M211.1,45.4c-1.6,3.9-1.5,13.6,0.2,17.4c2.4,5.3,10.3,6.6,14.6,2.9
	c3.4-3,4.6-14.8,2.3-20.3c-1.2-3.1-5-5.7-9.6-5.3C214.4,40.5,212.2,42.6,211.1,45.4z"/>
<path id="letter_b" class="st0" d="M247.5,13.4c3,0,6.2,0,9.2,0c0,7.5,0,14.9,0,22.4c1.9-1.1,3.4-2.8,5.5-3.7
	c8.6-3.9,18.4,1.7,20.5,8.8c1.6,5.6,1.5,22.6-1,26.9c-0.4,0.8-1,1.7-1.6,2.3c-7.2,8.8-24.4,8.7-30.4-1.4c-3.4-5.7-2.1-17.6-2.1-26.3
	c0-9.9,0-19,0-28.5C247.5,14.1,247.5,13.4,247.5,13.4z M260,41.5c-4.4,3.4-4.5,18.7-1.4,23.4c3.1,4.6,12,3.2,14.2-1
	c1.7-3.1,1.7-9.9,1.4-14.4c-0.5-6.5-3.1-9.9-9.7-9.4C262.4,40.3,261.1,40.6,260,41.5z"/>
<path id="letter_l" class="st0" d="M293.4,13.4c3,0,6.2,0,9.2,0c0,12.2,0,27,0,40.7c0,2.4,0,7.5,0,10.6c0,1.1,0.3,1.9,0.7,2.3
	c1.3,1.2,4.3,0.6,5.8,0.8c0,2.8,0,5.6,0,8.4c-1.8,0.2-3.6,0.2-5.2,0c-5.9-0.5-9.4-2.5-10.4-9c0-0.2,0-0.4,0-0.5
	c0-7.6,0.1-17.1,0.1-26.2c0-7.6,0-15,0-21.8C293.3,17,293.4,13,293.4,13.4z"/>
<path id="letter_u" class="st0" d="M316.3,31.3c2.9,0,5.9,0,8.8,0c0,7.4,0,17.8,0,25.5c0,1.3,0,2.6,0.2,3.8c0.2,2,1.2,3.2,1.9,4.1
	c0.9,1.2,1.5,1.7,3,2.4c2.5,1.1,5.5,0.9,7.4,0.2c3.3-1.3,5.3-4.7,5.3-9.1c0-0.2,0.1-0.5,0.1-0.7c0-7.9-0.1-18.7-0.1-26.1
	c2.6,0,6.1,0,9.2,0c-0.2,3.5,0,7.2,0,10.9c0,7.2,0,14.3,0,20.7c0,4.8-5.6,11.5-13.1,13.4c-7.3,1.8-16.4-1.1-20.4-6.9
	c-1.2-1.8-2.5-3.9-2.5-6.5c0-8.6,0.1-21.5,0.1-31.5C316.2,31.3,316.1,31.4,316.3,31.3z"/>
<path id="letter_e3" class="st0" d="M398.2,57.2c-9.3,0-18.6,0-27.9,0c-1,11.8,14.4,14,20.5,6.8c2.4,1.5,4.3,3.5,6.4,5.3
	c-3.5,4.6-8.6,7.4-16,7.4c-12,0.1-19-7.8-19.9-19.3c-1-14.3,4.6-27.9,20.5-26.5C394,32,399.7,42.3,398.2,57.2z M378,39.5
	c-4.8,0.7-7.3,4.7-7.6,10.1c6.3,0,12.6,0,18.9,0C389,43,385,38.6,378,39.5z"/>
<path id="registered_circle" class="st0" d="M405.3,18.5c2.4,0,4.7,1.3,5.6,3.8c0.5,3.1-0.4,5-1.8,6.2c-3.4,3-9.6,1-9.8-4.1
	C399.1,20.7,402.2,18.5,405.3,18.5z M400.9,24.1c0.1,4.5,4.1,5.7,6.8,4c1.4-0.9,2.2-2.6,1.9-4.8c-0.4-2.4-2.6-4-5.5-3.4
	C402.4,20.2,400.8,22,400.9,24.1z"/>
<path id="registered_letter_r" class="st0" d="M406.4,21.4c1.2,0.4,2,1.9,0.2,2.9c0.8,0.6,1.1,1.7,1.4,2.9c-0.5,0-1,0-1.6,0
	c-0.2-0.8-0.3-1.6-0.8-2.1c-0.4,0-0.9,0-1.3,0c0,0.6,0.1,1.5,0,2.1c-0.5,0-0.9,0-1.4,0c0-1.9,0-3.9,0-5.8
	C404.7,21.1,405.4,21.2,406.4,21.4z M404.4,22.5c-0.3,0.3-0.2,0.7-0.2,1.5c1,0,2.1,0.2,1.9-1C405.8,22.4,404.9,22.1,404.4,22.5z"/>
<path id="letter_slogan_w" class="st0" d="M14.2,101.7c1.2,0,2.4,0,3.6,0c1,5.1,2.7,9.6,3.6,14.9c1.7-4.9,3-10.1,4.8-14.9
	c0.9,0,1.8,0,2.7,0c1.6,4.9,3.3,9.6,4.4,14.9c1.4-5,2.6-10.1,4.2-14.9c1.1,0,2.2,0,3.4,0c-2,6.1-4,12.1-5.9,18.3c-1.1,0-2.1,0-3.2,0
	c-1.5-4.7-3.1-9.4-4.4-14.3c-1.4,4.9-3,9.6-4.6,14.3c-1,0-2.1,0-3.2,0C17.9,113.9,16,107.9,14.2,101.7z"/>
<path id="letter_slogan_e" class="st0" d="M58.9,111.6c-4.3,0-8.5,0-12.8,0c-0.4,5.9,6.4,7.3,11.3,5.3c0.2,0.8,0.4,1.7,0.6,2.5
	c-8.3,3-16.1-0.2-15.1-9.9C44.1,97.9,61.2,98.9,58.9,111.6z M46.1,109.1c3.2,0,6.4,0,9.7,0C56.5,101.8,45.8,102.9,46.1,109.1z"/>
<path id="letter_slogan_a" class="st0" d="M76.8,120c-1.1,0-2.1,0-3.2,0c0.1-0.9-0.4-1.2-0.2-2.1c-2.5,3.5-10.6,3.5-11.3-1.9
	c-0.7-5.7,4.8-7.8,10.9-7.6c0.9-5.5-5.8-5.2-8.8-3.4c-0.2-0.6-0.5-1.2-0.6-1.9c4.3-3.3,11.9-2.5,12.8,3.6
	C76.9,110.9,75.8,115.6,76.8,120z M66.1,112.7c-1.4,2-0.4,4.8,1.7,5.3c3.6,0.7,6.2-2.3,5.5-7.1C70,110.9,67.3,111,66.1,112.7z"/>
<path id="letter_slogan_t1" class="st0" d="M86.2,97.2c0,1.7,0,3.1,0,4.6c1.6,0,3.2,0,4.8,0c0,0.8,0,1.8,0,2.6c-1.5,0-3.3,0-4.8,0
	c0,2.6,0,7,0,10c0.2,0.9,0.4,2,0.8,2.6c0.7,0.9,1.9,0.6,3.7,0.6c0,0.6,0.1,1.6,0.1,2.5c-3.4,0.6-6.1,0.2-7.3-2
	c-0.9-2.6-0.8-9-0.7-13.7c-0.6,0-1.6,0-2.7,0c0-0.8,0-1.7,0-2.6c0.9,0,1.8,0,2.7,0c0-1.1,0-2.1,0-3.2C84,98.1,86.2,97.2,86.2,97.2z"
	/>
<path id="letter_slogan_h" class="st0" d="M98.6,93.2c0,3.7,0,7.4,0,11.1c0.7-1,2.1-2.2,3.6-2.7c1.9-0.7,4-0.5,5.7,0.6
	c4.5,2.8,2.5,10.9,2.9,17.9c-1.1,0-2.2,0-3.4,0c0-0.1,0-0.3,0-0.4c0-3,0.1-6.7,0.1-9.8c-0.2-2.6-0.8-4.8-2.8-5.6
	c-2.8-0.4-4.6,0.5-5.5,2.1c-0.7,1-0.5,2.2-0.6,3.6c0,3.1,0,6.9,0,10.1c-1.1,0-2.2,0-3.4,0c0-9,0-17.9,0-26.9
	C96.4,93.2,97.5,93.2,98.6,93.2z"/>
<path id="letter_slogan_e2" class="st0" d="M131.6,111.6c-4.3,0-8.5,0-12.8,0c-0.4,5.9,6.4,7.3,11.3,5.3c0.2,0.8,0.4,1.7,0.6,2.5
	c-8.3,3-16.1-0.2-15.1-9.9C116.8,97.9,133.9,98.9,131.6,111.6z M118.8,109.1c3.2,0,6.4,0,9.7,0C129.2,101.8,118.5,102.9,118.8,109.1
	z"/>
<path id="letter_slogan_r" class="st0" d="M145.3,101.3c0,1.1,0,2.2,0,3.4c-4.9-0.8-6,3.3-5.7,8c0,2.4,0,5,0,7.3c-1.1,0-2.3,0-3.4,0
	c0-6.1,0-12.4,0-18.3c1.1,0,2.1,0,3,0c0,1.1,0,2.5,0,3.6C140.2,103,141.7,101.1,145.3,101.3z"/>
<path id="letter_slogan_sun" class="st1" d="M176.2,96.9c0.2,0,0.8,0,1,0c0,0.8,0,3,0,4.4c2.8,0.4,3.8,1.1,4.6,1.7
	c1.7-1.7,2.7-2.9,3.7-3.7c0.2,0.2,0.7,0.4,0.9,0.7c-1.4,1.5-2.7,2.6-3.7,3.8c1,1.4,1.9,2.4,1.7,4.6c1.6,0,2.8,0,4.6,0
	c0,0.2,0,0.8,0,1.1c-1.3,0-3.2,0-4.5,0c-0.3,1.8-0.7,3.3-1.9,4.4c0.9,1.3,2.7,2.7,3.7,3.8c-0.1,0.1-0.5,0.5-0.8,0.8
	c-1.3-1.2-2.3-2.3-3.6-3.6c-1.7,1.1-2.6,1.6-4.7,1.9c0,1.3,0,3.1,0,4.4c-0.6,0-0.7,0-1.1,0c0-1,0-3.4,0-4.4
	c-2.2-0.2-2.7-0.3-4.6-1.8c-1,0.9-2.5,2.5-3.6,3.5c-0.3-0.2-0.7-0.4-0.9-0.6c1.3-1.5,2.3-2.5,3.6-3.8c-1-1.6-1.7-2.6-1.7-4.6
	c-1.9,0-2.2,0-4.4,0c0-0.5,0-0.9,0-1.1c1,0,3.1,0,4.3,0c0.2-1.9,0.7-3.4,1.9-4.6c-1.1-1.1-2.8-2.7-3.7-3.6c0.1-0.1,0.4-0.6,0.7-0.9
	c1.3,1.3,2.5,2.3,3.8,3.7c1.4-0.9,2.5-1.6,4.5-1.7C176.2,99.8,176.2,98.3,176.2,96.9z M173.8,115.2c6.5,2.8,11.1-4.1,9-9
	c-1.1-2.6-4.3-4.2-7.6-3.6C169.4,103.7,167.9,112.7,173.8,115.2z"/>
<path id="letter_slogan_c" class="st0" d="M221.1,102c-0.2,1.1-0.6,2.1-0.8,2.9c-0.9-0.2-1.6-0.7-2.1-0.8
	c-7.4-1.3-10.2,7.1-6.5,11.6c2,1.8,5.9,2.4,8.8,1.1c0.2,1,0.5,1.9,0.6,2.9c-7.8,3.1-14.4-1.4-14.5-8.4
	C206.4,103.7,213.4,98.9,221.1,102z"/>
<path id="letter_slogan_l" class="st0" d="M228.4,92.9c0,8.2,0,18.2,0,27.1c-1,0-2.1,0-3.2,0c0-8.9,0-18.2,0-27.1
	C226.4,92.9,227.1,92.9,228.4,92.9z"/>
<path id="letter_slogan_o1" class="st0" d="M240,101.3c4.8-1.1,8.3,0.8,10.1,3.4c3.9,5.7,0.1,14.8-5.7,15.8
	C231.4,122.5,230.2,103.6,240,101.3z M243.8,117.5c5.7-1.2,6.1-15.7-2.9-13.2C234.6,105.9,236.1,119.1,243.8,117.5z"/>
<path id="letter_slogan_s" class="st0" d="M266.1,102c-0.3,1.1-0.6,1.9-0.8,2.9c-1.8-1.2-7-1.7-6.9,1.3c0,2.7,5.6,2.9,7.4,5
	c0.6,0.8,1.1,2.7,1,4c-0.3,5.1-6.7,6.6-12,4.2c0.2-1.2,0.4-1.9,0.6-3.2c2.3,2.1,9.5,2,7.8-2.3c-1.2-2.8-9.1-1.9-8-8.6
	C255.8,101.3,261.3,100,266.1,102z"/>
<path id="letter_slogan_e3" class="st0" d="M286.4,111.6c-4.3,0-9,0-13,0c-0.1,2.5,1.3,4.3,3.3,5.2c2.3,1,5.4,0.9,7.8-0.2
	c0.3,0.8,0.4,1.7,0.7,2.9c-3.1,0.7-5.4,1.2-8,0.8c-10.4-1.5-9.2-21.2,3.4-19.3c3.5,0.5,5.6,4.1,5.9,8.8
	C286.5,111,286.4,110.7,286.4,111.6z M273.4,108.7c3.2,0,6.4,0,9.7,0C283.4,101.8,273.5,102.9,273.4,108.7z"/>
<path id="letter_slogan_t2" class="st0" d="M303.6,97.1c0,1.7,0,3.1,0,4.6c1.6,0,3.2,0,4.8,0c0,0.8,0,1.8,0,2.6c-1.5,0-3.3,0-4.8,0
	c0,2.6,0,7,0,10c0.2,0.9,0.4,2,0.8,2.6c0.7,0.9,1.9,0.6,3.7,0.6c0,0.6,0.1,1.6,0.1,2.5c-3.4,0.6-6.1,0.2-7.3-2
	c-0.9-2.6-0.8-9-0.7-13.7c-0.6,0-1.6,0-2.7,0c0-0.8,0-1.7,0-2.6c0.9,0,1.8,0,2.7,0c0-1,0-2.1,0-3.2C301.4,98,303.6,97.1,303.6,97.1z
	"/>
<path id="letter_slogan_o2" class="st0" d="M317.9,101.3c14.6-3.3,15.3,21.4,0.4,19.1C309,119,309.1,103.3,317.9,101.3z
	 M321.7,117.5c5.8-1.3,6-15.5-2.9-13.2C312.2,106,314,119.2,321.7,117.5z"/>
<path id="letter_slogan_y" class="st0" d="M340.2,101.5c1.3,0,2.5,0,3.8,0c1.6,4.6,4.9,13.5,5.3,13.9c1.3-4.8,3.1-9.1,4.4-13.9
	c1.3,0,2.5,0,3.8,0c-1.3,3.4-2.5,6.5-4,10.1c-1.7,4.4-2.6,7.7-5.4,12.3c-2,2.7-3.1,3.7-6.1,4.5c-0.3-1.2-0.5-1.9-0.8-3.4
	c2.2-0.5,6.4-3.1,5.9-6.3c-0.3-2.1-2-5.6-2.9-7.8C342.6,107.5,340.8,104.3,340.2,101.5z"/>
<path id="letter_slogan_o3" class="st0" d="M376.8,108.7c0.1,7.7-3,13-10.9,11.8c-9.8-1.5-9.8-21.6,4.2-19.3
	C373.8,101.7,375.6,105,376.8,108.7z M366.7,117.5c8.9,1.6,9.1-15.7-0.4-13.2C360.4,105.8,361,116.5,366.7,117.5z"/>
<path id="letter_slogan_u" class="st0" d="M381.4,101.5c1.1,0,2.2,0,3.4,0c0.4,3.6-0.5,8.5,0,11.8c0.1,1,0.7,2.6,1.3,3.2
	c2.4,2.2,6.5,0.4,7.6-2.3c0-4.2,0-8.4,0-12.6c1.1,0,2.2,0,3.4,0c0,6.2,0,12.3,0,18.5c-1,0-2,0-2.9,0c0-1,0.3-2.4-0.6-2.5
	c-1.6,4-8.7,3.7-10.7,0.4c-0.7-1.1-0.9-2.4-1-3.9c-0.3-3.8-0.2-8.5-0.2-11.8C381.4,102,381.4,101.7,381.4,101.5z"/>
</svg>
