<?xml version="1.0" encoding="utf-8"?>
<!-- Generator: Adobe Illustrator 21.1.0, SVG Export Plug-In . SVG Version: 6.00 Build 0)  -->
<svg version="1.1" id="Vrstva_1" xmlns="http://www.w3.org/2000/svg" xmlns:xlink="http://www.w3.org/1999/xlink" x="0px" y="0px"
	 width="425.2px" height="425.2px" viewBox="0 0 425.2 425.2" style="enable-background:new 0 0 425.2 425.2;" xml:space="preserve"
	>
<style type="text/css">
	.st0{fill:none;}
	.st1{fill:#9D9D9C;}
</style>
<path class="st0" d="M357.8,102.3c1.1,1.4,2.4,2.1,3.8,2.1s3.2-0.7,4.9-2c1.7-1.4,2.8-2.7,3.2-4.2c0.3-1.4,0-2.9-1.1-4.3l-2.6-3.3
	l-10.8,8.3L357.8,102.3z"/>
<path class="st0" d="M115.7,371.5c0.6-0.9,0.8-1.7,0.5-2.4c-0.3-0.7-0.9-1.4-2-2.1l-3.6-2.3l-3.2,5l3.4,2.2c1.2,0.8,2.1,1.1,2.9,1
	C114.4,372.9,115.1,372.4,115.7,371.5z"/>
<polygon class="st0" points="125.1,382.9 126.4,374.6 120.2,380.3 "/>
<polygon class="st0" points="175.5,21.1 174.3,29.5 179.8,28.4 "/>
<polygon class="st0" points="356.7,80.5 349.1,83.9 352.8,88 "/>
<polygon class="st0" points="62.7,88 67,95.2 70.6,90.9 "/>
<path class="st0" d="M184.4,153.8H196c4.7,0,8.4-3.8,8.4-8.4v-28c0-4.7-3.8-8.4-8.4-8.4h-11.6c-4.7,0-8.4,3.8-8.4,8.4v28
	C175.9,150,179.7,153.8,184.4,153.8z M185.5,118.5c0-1.1,0.9-2,2-2h5.5c1.1,0,2,0.9,2,2v25.6c0,1.1-0.9,2-2,2h-5.5c-1.1,0-2-0.9-2-2
	V118.5z"/>
<path class="st0" d="M140.8,381l-3.8-1.6l-2.4,5.5l3.8,1.6c1.4,0.6,2.5,0.8,3.2,0.6c0.8-0.2,1.4-0.9,1.8-1.9
	c0.4-0.9,0.4-1.8,0.1-2.4C143.1,382.3,142.3,381.6,140.8,381z"/>
<path class="st0" d="M37.1,143.2c2.1,0.9,4,1.1,5.5,0.7c1.6-0.4,2.8-1.5,3.6-3.2c0.8-1.7,0.8-3.3,0-4.8c-0.8-1.4-2.2-2.6-4.3-3.6
	c-2.1-0.9-4-1.2-5.5-0.7c-1.6,0.4-2.8,1.5-3.5,3.2c-0.8,1.7-0.8,3.3,0,4.8C33.5,141.1,34.9,142.3,37.1,143.2z"/>
<path class="st0" d="M231,32.2c1.9,0.2,3.4-0.3,4.5-1.5c1.2-1.2,1.9-2.9,2.1-5.2c0.3-2.3-0.1-4.2-1-5.5c-0.9-1.4-2.3-2.1-4.2-2.4
	c-1.9-0.2-3.4,0.3-4.6,1.5c-1.2,1.2-1.9,2.9-2.1,5.2c-0.3,2.3,0.1,4.1,1,5.5S229.1,32,231,32.2z"/>
<polygon class="st0" points="21.5,253.7 29.9,254.9 28.8,249.4 "/>
<path class="st0" d="M270.1,31.2c0.7-0.3,1.2-0.9,1.4-2c0.3-1,0.3-1.8-0.2-2.5c-0.4-0.6-1.3-1.1-2.5-1.4l-4.1-1.2l-1.7,5.8L267,31
	C268.5,31.4,269.5,31.4,270.1,31.2z"/>
<path class="st0" d="M88.8,347.1l-3.1-2.8l-9.3,10.1l3.1,2.8c1.3,1.2,2.7,1.7,4.2,1.4c1.4-0.3,3-1.2,4.5-2.9
	c1.4-1.6,2.3-3.2,2.4-4.6C90.7,349.7,90.1,348.3,88.8,347.1z"/>
<path class="st0" d="M246.5,394.3c-1.3-1.1-2.8-1.5-4.6-1.2c-1.9,0.3-3.2,1.2-4,2.6c-0.9,1.4-1.1,3.3-0.7,5.5
	c0.3,2.3,1.2,3.9,2.4,5.1c1.3,1.1,2.8,1.5,4.7,1.2c1.9-0.3,3.2-1.2,4-2.6s1.1-3.3,0.7-5.5C248.5,397.2,247.8,395.5,246.5,394.3z"/>
<polygon class="st0" points="28.4,178.5 29.6,173.1 21.2,174.3 "/>
<path class="st0" d="M317.8,53.8c0.8-0.1,1.4-0.6,2.1-1.5c0.6-0.9,0.7-1.7,0.4-2.4s-1-1.4-2.4-2.3l-3.5-2.2l-3.2,5.1l3.5,2.2
	C316,53.4,317,53.9,317.8,53.8z"/>
<path class="st0" d="M354,330.3c-0.7,0.2-1.6,0.9-2.6,2l-2.7,3.2l4.6,4l2.7-3.2c1-1.1,1.4-2.1,1.5-2.9c0-0.8-0.3-1.5-1.2-2.3
	C355.5,330.5,354.8,330.2,354,330.3z"/>
<path class="st0" d="M18.4,217c1.3,1,3.1,1.6,5.4,1.6s4.1-0.5,5.4-1.5c1.3-1,2-2.6,2-4.4s-0.6-3.3-2-4.3c-1.3-1-3.1-1.6-5.4-1.6
	s-4.1,0.5-5.4,1.5c-1.3,1-2,2.5-2,4.3S17.1,215.9,18.4,217z"/>
<path class="st0" d="M154.7,40.2c1.7-0.6,2.8-1.5,3.3-3c0.5-1.4,0.4-3.2-0.3-5.4c-0.7-2-1.7-3.5-2.9-4.3c-1.3-0.8-2.7-0.9-4.3-0.3
	l-4,1.4l4.3,13L154.7,40.2z"/>
<path class="st0" d="M156.1,280.8c0.5-0.1,0.9-0.3,1.4-0.3C158.5,280.2,155.8,280.7,156.1,280.8z"/>
<path class="st0" d="M403.1,197c0.5,0.6,1.4,0.8,2.6,0.7c1-0.1,1.8-0.5,2.1-1.1c0.3-0.6,0.5-1.7,0.3-3.3l-0.4-4.2l-6.1,0.6l0.4,4.2
	C402.2,195.4,402.5,196.4,403.1,197z"/>
<polygon class="st0" points="122.8,48.6 116.4,43 117.9,51.3 "/>
<polygon class="st0" points="408.6,210.7 400.7,207.9 400.7,213.6 "/>
<path class="st0" d="M399.6,244.8c-2.2-0.4-4.1-0.3-5.6,0.5c-1.4,0.8-2.4,2.1-2.8,3.9c-0.3,1.8,0,3.4,1,4.7c1,1.3,2.7,2.1,4.9,2.6
	c2.3,0.4,4.1,0.3,5.6-0.5c1.4-0.8,2.4-2,2.7-3.9c0.3-1.9,0-3.4-1-4.7C403.5,246.1,401.9,245.3,399.6,244.8z"/>
<path class="st0" d="M299.8,375.8c-1.5-0.7-3.2-0.6-4.8,0.3c-1.7,0.9-2.7,2-3.1,3.8c-0.3,1.6,0,3.5,1,5.5c1,2,2.3,3.4,3.8,4.1
	c1.5,0.7,3.2,0.6,4.8-0.3c1.7-0.9,2.6-2,3.1-3.7c0.3-1.6,0-3.5-1-5.5C302.6,377.8,301.3,376.4,299.8,375.8z"/>
<path class="st1" d="M55.1,168.1l-6.1-1.9c-6.1,19.8-6,35.7-6.2,50.1c-0.3,76.9,61.4,162.1,161.8,167l13.6,0.3
	c97.4-2.7,162.7-86.6,164.7-160.6c3.8-44-17.2-85.4-17.3-85.4l-2.1,2.4c-36.1,48.8-64.9,88.9-114.9,104.5c1-0.3-7.2,3.4,25.5,0.2
	c1.2-0.1,13.6-0.9,16.4,7.8l-14.4,0.9c-47.1,6.4-83.4,49.6-119.6,27.1c-0.3-0.1,2.4-0.6,1.4-0.3c15.7-4.1,47-17.1,52.6-22.8
	c0,0-7.5-0.2-11.4-0.4C108.6,253,80.8,177.8,55.1,168.1z"/>
<path class="st1" d="M157.6,280.4c-0.5,0.2-1,0.3-1.4,0.3C156.9,280.6,157.4,280.4,157.6,280.4z"/>
<path class="st1" d="M231.6,118.5c0-1.1-0.9-2-2-2h-5.4c-1.1,0-2,0.9-2,2v9.6h9.3L231.6,118.5L231.6,118.5z"/>
<path class="st1" d="M187.5,146h5.5c1.1,0,2-0.9,2-2v-25.6c0-1.1-0.9-2-2-2h-5.5c-1.1,0-2,0.9-2,2v25.6
	C185.5,145.2,186.4,146,187.5,146z"/>
<path class="st1" d="M220,245.5c14,0.3,23.3-8,33.9-18.3c38.8-37.6,44.3-107.1,94-116.9c0,0-18.4-27.8-55.2-47.3
	c-3.5-1.9-32.9-19.5-78-20.2C117,43,73.9,114.8,73.9,114.8c21.7,10.6,44.1,42.6,44.4,43C142.4,191.7,176.2,244.4,220,245.5z
	 M249.5,117.3c0-4.7,3.8-8.4,8.4-8.4h11.6c4.7,0,8.4,3.8,8.4,8.4v36.4h-9.6v-18H259v18h-9.6L249.5,117.3L249.5,117.3z M212.7,117.3
	c0-4.7,3.8-8.4,8.4-8.4h11.6c4.7,0,8.4,3.8,8.4,8.4v36.4h-9.6v-18h-9.3v18h-9.6L212.7,117.3L212.7,117.3z M175.9,117.3
	c0-4.7,3.8-8.4,8.4-8.4h11.6c4.7,0,8.4,3.8,8.4,8.4v28c0,4.7-3.8,8.4-8.4,8.4h-11.6c-4.7,0-8.4-3.8-8.4-8.4V117.3z M139.1,108.9
	h20.1c4.7,0,8.4,3.8,8.4,8.4v36.4h-9.6v-35.2c0-1.1-0.9-2-2-2h-5.5c-1.1,0-2,0.9-2,2v35.2H139L139.1,108.9L139.1,108.9z"/>
<path class="st1" d="M268.4,118.5c0-1.1-0.9-2-2-2h-5.4c-1.1,0-2,0.9-2,2v9.6h9.3L268.4,118.5L268.4,118.5z"/>
<path class="st1" d="M134.8,50.7l-6-13.3c0.2,0.2,0.3,0.3,0.6,0.5c0.2,0.2,0.4,0.3,0.6,0.4l13.2,8.5l2.4-1.1l-7.3-16.4l-2.1,0.9
	l6,13.3c-0.2-0.2-0.3-0.3-0.6-0.5c-0.3-0.2-0.5-0.3-0.8-0.5l-13-8.4l-2.5,1.1l7.3,16.4L134.8,50.7z"/>
<path class="st1" d="M248.3,36.9c2,0.4,3.8,0.3,5.2-0.5c1.4-0.8,2.3-2,2.6-3.7c0.2-0.7,0.2-1.4,0-2c-0.2-0.6-0.4-1.2-0.8-1.7
	c-0.5-0.7-1.7-1.4-3.5-2.2c-0.1-0.1-0.2-0.1-0.3-0.1c-0.3-0.1-0.5-0.3-0.9-0.4c-2.7-1.3-4-2.6-3.8-3.9c0.2-0.9,0.7-1.4,1.4-1.9
	c0.8-0.3,1.8-0.4,3-0.2c1.3,0.3,2.1,0.8,2.7,1.5s0.9,1.8,0.7,3l2.3,0.4c0.3-1.7,0-3.2-0.9-4.4c-0.9-1.2-2.4-2-4.3-2.4
	c-1.9-0.3-3.5-0.2-4.9,0.5c-1.4,0.7-2.1,1.9-2.5,3.4c-0.3,1.3-0.1,2.4,0.6,3.2c0.6,0.9,2,1.8,4.3,2.8c0.1,0.1,0.3,0.1,0.4,0.2
	c2.8,1.3,4.1,2.6,3.8,3.9c-0.2,1-0.8,1.7-1.6,2.1c-0.9,0.4-2,0.5-3.4,0.3s-2.4-0.9-3.1-1.8c-0.7-0.9-0.9-2-0.7-3.3l-2.3-0.4
	c-0.3,2,0,3.7,1,5S246.1,36.5,248.3,36.9z"/>
<path class="st1" d="M230.8,34.2c2.6,0.3,4.8-0.3,6.5-1.9c1.6-1.5,2.6-3.8,2.9-6.7s-0.3-5.4-1.5-7.2s-3.3-2.8-6-3.1
	c-2.6-0.3-4.8,0.3-6.5,1.9c-1.6,1.5-2.6,3.8-2.9,6.7c-0.3,3,0.3,5.4,1.5,7.2C226.1,33,228.1,34,230.8,34.2z M225.8,24.3
	c0.3-2.3,0.9-4,2.1-5.2c1.2-1.2,2.7-1.7,4.6-1.5c1.9,0.2,3.2,0.9,4.2,2.4c0.9,1.4,1.3,3.2,1,5.5c-0.3,2.3-0.9,4-2.1,5.2
	c-1.2,1.2-2.7,1.7-4.5,1.5c-1.9-0.2-3.2-0.9-4.2-2.4S225.5,26.6,225.8,24.3z"/>
<path class="st1" d="M174,31.6l6.9-1.4l2.9,4.9l2.6-0.5l-10-16.4l-2.6,0.5l-3.2,18.8l2.5-0.5L174,31.6z M175.5,21.1l4.3,7.2l-5.5,1
	L175.5,21.1z"/>
<polygon class="st1" points="190.5,18.5 192.2,34.1 194.6,33.8 192.9,18.1 198.6,17.5 198.3,15.4 184.6,16.8 184.8,19.1 "/>
<path class="st1" d="M204.6,33l-0.2-15.3c0.1,0.3,0.1,0.6,0.2,0.9c0.1,0.3,0.2,0.5,0.3,0.8l4.7,13.6h2.3l4.4-13.8
	c0.1-0.3,0.2-0.5,0.3-0.8c0.1-0.3,0.2-0.5,0.2-0.8l0.2,15.3h2.4L219.1,15h-3.5l-4.4,13.8c-0.1,0.2-0.2,0.4-0.2,0.7
	c-0.1,0.3-0.1,0.5-0.2,0.8c0-0.2-0.1-0.3-0.2-0.6s-0.2-0.5-0.3-0.9l-4.6-13.6h-3.5l0.2,17.9H204.6z"/>
<path class="st1" d="M155.6,42.3c2.3-0.8,3.9-2.1,4.7-4.2c0.8-2,0.7-4.3-0.2-7.1c-0.9-2.6-2.2-4.5-3.9-5.5s-3.8-1.1-6.1-0.3
	l-6.5,2.1l5.7,17.1L155.6,42.3z M150.4,27.3c1.7-0.6,3.2-0.4,4.3,0.3c1.3,0.8,2.2,2.2,2.9,4.3c0.8,2.1,0.9,3.9,0.3,5.4
	c-0.5,1.4-1.6,2.4-3.3,3l-4,1.4l-4.3-13L150.4,27.3z"/>
<path class="st1" d="M392,190.8l7.7-0.8l0.4,3.9c0.2,1.7,0.1,2.8-0.2,3.2c-0.3,0.4-1,0.8-2.2,1l-2.3,0.3c0,0,0,0-0.1,0
	c-1.2,0.3-2,0.4-2.3,0.7l0.3,2.8l0.5-0.1c0.1-0.3,0.3-0.5,0.6-0.6c0.3-0.1,0.8-0.3,1.4-0.4l2.9-0.5c1.1-0.2,1.9-0.4,2.3-0.8
	s0.7-0.9,0.9-1.6c0.5,0.8,1.1,1.4,1.8,1.7c0.7,0.3,1.5,0.4,2.6,0.3c1-0.1,1.9-0.4,2.6-0.9c0.7-0.4,1.2-1.1,1.5-1.9
	c0.2-0.4,0.3-0.9,0.3-1.4c0.1-0.5,0-1.4-0.1-2.5l-0.7-6.9l-17.8,1.8L392,190.8z M407.6,189.1l0.4,4.2c0.2,1.5,0.1,2.6-0.3,3.3
	c-0.3,0.6-1.1,1-2.1,1.1c-1.1,0.1-2-0.1-2.6-0.7c-0.5-0.6-0.9-1.6-1-3.1l-0.4-4.2L407.6,189.1z"/>
<path class="st1" d="M356.1,103.7c1.5,2,3.3,3,5.5,3.1c2.1,0.1,4.3-0.7,6.7-2.5c2.2-1.7,3.6-3.6,3.9-5.5c0.3-2-0.2-3.9-1.7-5.9
	l-4.2-5.5L352,98.3L356.1,103.7z M368.7,93.9c1.1,1.4,1.4,2.8,1.1,4.3c-0.3,1.4-1.4,2.8-3.2,4.2c-1.8,1.4-3.5,2-4.9,2
	s-2.7-0.8-3.8-2.1l-2.6-3.3l10.8-8.3L368.7,93.9z"/>
<rect x="372.7" y="126.2" transform="matrix(0.8909 -0.4541 0.4541 0.8909 -16.248 187.2034)" class="st1" width="17.9" height="2.5"/>
<path class="st1" d="M363.9,114.3l13-7.9c-0.3,0.2-0.4,0.4-0.6,0.6c-0.2,0.2-0.3,0.3-0.5,0.6l-9.4,11l1.2,2l14.2-3.2
	c0.3-0.1,0.5-0.2,0.8-0.2c0.3-0.1,0.5-0.2,0.8-0.3l-13,7.9l1.2,2l15.3-9.3l-1.8-3l-14.2,3.2c-0.3,0.1-0.4,0.1-0.7,0.2
	c-0.3,0.1-0.5,0.2-0.8,0.3c0.1-0.1,0.3-0.3,0.4-0.4s0.3-0.4,0.6-0.7l9.4-10.9l-1.8-3l-15.3,9.3L363.9,114.3z"/>
<path class="st1" d="M377,138.1l13.4-5.7c-0.2,0.2-0.3,0.3-0.5,0.6c-0.2,0.2-0.3,0.3-0.4,0.6l-8.9,13l1,2.5l16.5-7.1l-0.9-2.1
	l-13.4,5.7c0.2-0.2,0.3-0.3,0.5-0.6s0.3-0.5,0.5-0.8l8.7-12.8l-1-2.5l-16.5,7.1L377,138.1z"/>
<path class="st1" d="M393.1,205.4l5.4,1.9l0.1,7.1l-5.4,2v2.6l17.8-6.9v-2.7l-18-6.5L393.1,205.4z M408.6,210.7l-7.8,2.9l-0.1-5.6
	L408.6,210.7z"/>
<polygon class="st1" points="405.3,175.3 389.9,178.3 390.3,180.7 405.9,177.8 406.9,183.3 409,182.9 406.4,169.3 404.3,169.7 "/>
<path class="st1" d="M262.5,31.9l3.6,1c1.3,0.3,2.2,0.6,2.8,0.7c0.6,0.1,1.1,0,1.6-0.1c0.9-0.3,1.5-0.7,2.1-1.3
	c0.6-0.6,1-1.4,1.3-2.4c0.3-1,0.3-2,0.2-2.8c-0.2-0.9-0.5-1.6-1.1-2.1c-0.3-0.3-0.8-0.7-1.3-0.9c-0.5-0.3-1.3-0.5-2.3-0.9l-6.3-1.9
	l-5,17.2l2.3,0.7L262.5,31.9z M264.8,24.1l4.1,1.2c1.3,0.3,2,0.9,2.5,1.4c0.4,0.6,0.4,1.4,0.2,2.5c-0.3,1-0.8,1.7-1.4,2
	c-0.7,0.3-1.7,0.3-3.1-0.2l-3.9-1.2L264.8,24.1z"/>
<rect x="382.8" y="149.7" transform="matrix(0.9444 -0.3289 0.3289 0.9444 -27.8616 137.2277)" class="st1" width="17.9" height="2.5"/>
<path class="st1" d="M305.9,58.7l4.1-6.5l3.3,2.1c1.4,0.9,2.3,1.6,2.5,2.2c0.2,0.5,0,1.4-0.6,2.4l-1.1,2c0,0,0,0,0,0.1
	c-0.6,1.1-0.9,1.9-0.9,2.3l2.4,1.5l0.2-0.5c-0.2-0.3-0.2-0.5-0.1-0.9c0.1-0.3,0.3-0.8,0.5-1.4l1.4-2.6c0.5-0.9,0.8-1.7,0.8-2.3
	c0-0.5-0.3-1.1-0.8-1.6c0.9,0.1,1.7,0,2.4-0.3c0.7-0.3,1.4-0.9,1.9-1.8c0.5-0.9,0.9-1.7,0.9-2.6c0.1-0.9-0.1-1.6-0.5-2.4
	c-0.3-0.4-0.5-0.9-0.9-1.2c-0.4-0.3-1.1-0.9-2-1.4l-5.9-3.8l-9.6,15.2L305.9,58.7z M314.4,45.3l3.5,2.2c1.4,0.9,2.1,1.6,2.4,2.3
	s0.1,1.4-0.4,2.4c-0.6,0.9-1.3,1.4-2.1,1.5c-0.8,0.1-1.8-0.3-3.1-1.1l-3.5-2.2L314.4,45.3z"/>
<polygon class="st1" points="301.4,55.9 302.4,53.9 293,49.1 295.8,43.7 304.3,48.1 305.2,46.3 296.7,41.8 299.2,37.1 308.4,41.8 
	309.4,39.9 298,34 289.8,49.9 "/>
<polygon class="st1" points="275.4,44 278.5,36.1 287.2,39.6 284.1,47.5 286.3,48.3 293,31.7 290.7,30.7 288,37.6 279.3,34.2 
	282,27.3 279.8,26.4 273.2,43 "/>
<path class="st1" d="M328.3,62.6c-2,2.3-2.9,4.6-2.9,6.9c0,2.2,0.9,4.2,2.9,5.8c1.7,1.4,3.5,2,5.4,2c1.9-0.1,3.6-0.9,5-2.6l-1.8-1.5
	c-1,1.1-2.1,1.7-3.5,1.8c-1.3,0.1-2.6-0.3-3.7-1.3c-1.4-1.1-2-2.5-1.9-4.2c0.1-1.7,0.8-3.4,2.2-5c1.4-1.8,3-2.8,4.6-3.2
	c1.6-0.3,3.1,0.1,4.4,1.3c1,0.9,1.7,1.8,2,2.9c0.3,1,0.1,2-0.5,3.2l1.9,1.5c1-1.5,1.4-3.1,1-4.8c-0.3-1.6-1.3-3.1-2.8-4.4
	c-2-1.6-4-2.3-6.2-2C332.3,59.4,330.1,60.5,328.3,62.6z"/>
<path class="st1" d="M341.7,86.9l5.2-2.2l4.8,5.2l-2.6,5l1.8,2l8.6-17.1l-1.8-2l-17.7,7.2L341.7,86.9z M356.7,80.5l-3.9,7.4
	l-3.8-4.1L356.7,80.5z"/>
<rect x="315.2" y="58.8" transform="matrix(0.5878 -0.809 0.809 0.5878 85.0598 286.9386)" class="st1" width="17.9" height="2.5"/>
<path class="st1" d="M397.6,155c-1.3,0.3-2.1,1-2.6,2c-0.5,0.9-0.7,2.6-0.6,5.2c0,0.1,0,0.3,0,0.4c0.1,3.1-0.5,4.8-1.8,5.2
	c-0.9,0.3-1.9,0.1-2.6-0.5c-0.8-0.6-1.4-1.6-1.7-2.9c-0.3-1.4-0.3-2.6,0.2-3.6c0.5-1,1.4-1.7,2.6-2l-0.6-2.3c-2,0.6-3.3,1.7-4,3.2
	c-0.8,1.4-0.8,3.2-0.3,5.4c0.6,2,1.5,3.5,2.8,4.4c1.3,0.9,2.8,1.1,4.5,0.7c0.7-0.2,1.3-0.5,1.8-0.9c0.5-0.4,0.9-0.9,1.1-1.4
	c0.3-0.8,0.5-2.1,0.4-4.1c0-0.1,0-0.3,0-0.3c0-0.3,0-0.6,0-1c-0.2-3.1,0.4-4.8,1.8-5.1c0.9-0.3,1.6-0.1,2.3,0.5
	c0.7,0.5,1.2,1.4,1.5,2.6c0.3,1.2,0.3,2.3-0.1,3.2c-0.4,0.9-1.2,1.5-2.3,2l0.6,2.2c1.7-0.5,2.9-1.4,3.6-2.8c0.7-1.4,0.8-3,0.3-4.9
	c-0.5-1.9-1.4-3.2-2.6-4.1C400.5,154.8,399.1,154.6,397.6,155z"/>
<path class="st1" d="M37.7,255.9l-5.6-0.8l-1.4-6.9l4.9-3l-0.5-2.6L18.8,253l0.6,2.6l18.9,2.8L37.7,255.9z M21.5,253.7l7.2-4.3
	l1.2,5.5L21.5,253.7z"/>
<path class="st1" d="M119.3,59.1l-1-5.6l6.1-3.5l4.3,3.8l2.3-1.3l-14.7-12.3l-2.3,1.4l3.1,18.9L119.3,59.1z M122.8,48.6l-4.9,2.7
	l-1.4-8.3L122.8,48.6z"/>
<path class="st1" d="M23.8,221.1c3,0,5.3-0.8,7-2.2c1.7-1.5,2.5-3.6,2.6-6.2c0-2.6-0.9-4.8-2.5-6.2c-1.7-1.5-4-2.3-6.9-2.3
	c-3,0-5.3,0.8-7,2.2c-1.7,1.5-2.5,3.6-2.6,6.2c0,2.6,0.9,4.8,2.5,6.2C18.5,220.3,20.8,221.1,23.8,221.1z M18.4,208.2
	c1.3-1,3.1-1.5,5.4-1.5s4.1,0.5,5.4,1.6c1.3,1,2,2.6,2,4.3c0,1.9-0.7,3.3-2,4.4c-1.3,1-3.1,1.6-5.4,1.5c-2.3,0-4.1-0.5-5.4-1.6
	c-1.3-1-2-2.6-2-4.4C16.4,210.7,17.1,209.2,18.4,208.2z"/>
<path class="st1" d="M42.3,271.6l-13.9,4.3c0.2-0.2,0.4-0.3,0.6-0.5c0.2-0.2,0.3-0.3,0.5-0.5l10-12.1l-0.8-2.6l-17.1,5.4l0.7,2.2
	l13.9-4.3c-0.2,0.2-0.3,0.3-0.6,0.5c-0.2,0.2-0.4,0.4-0.6,0.7l-10,11.9l0.8,2.6l17.1-5.4L42.3,271.6z"/>
<rect x="15.2" y="224.8" transform="matrix(0.9977 -6.716418e-02 6.716418e-02 0.9977 -15.128 2.1343)" class="st1" width="17.9" height="2.5"/>
<path class="st1" d="M386.5,262.4l13.9,4.3c-0.3,0-0.5,0.1-0.8,0.1c-0.3,0-0.5,0.1-0.7,0.2l-15.2,4.3l-0.8,2.6l17.1,5.4l0.7-2.2
	l-13.9-4.3c0.3,0,0.5-0.1,0.8-0.1c0.3-0.1,0.6-0.2,0.9-0.3l14.9-4.1l0.8-2.6l-17.1-5.4L386.5,262.4z"/>
<polygon class="st1" points="408.6,225.8 392.9,224.7 392.7,227.1 408.4,228.2 408.1,233.9 410.2,234 411.2,220.3 409,220.1 "/>
<rect x="399.4" y="228.4" transform="matrix(0.1267 -0.9919 0.9919 0.1267 114.4401 604.6782)" class="st1" width="2.5" height="17.9"/>
<path class="st1" d="M400.1,242.3c-2.9-0.6-5.3-0.3-7.2,0.9c-2,1.2-3.2,3-3.7,5.6c-0.5,2.6-0.1,4.8,1.2,6.6c1.4,1.8,3.5,3,6.4,3.6
	c2.9,0.6,5.4,0.3,7.2-0.9c2-1.1,3.2-3,3.7-5.6c0.5-2.6,0.1-4.9-1.2-6.7S403,242.9,400.1,242.3z M405.7,252.1
	c-0.3,1.8-1.3,3.2-2.7,3.9s-3.3,0.9-5.6,0.5c-2.2-0.4-3.9-1.4-4.9-2.6c-1-1.3-1.4-2.8-1-4.7c0.3-1.9,1.3-3.2,2.8-3.9
	c1.4-0.8,3.3-0.9,5.6-0.5c2.3,0.4,3.9,1.4,4.9,2.6C405.7,248.7,406,250.3,405.7,252.1z"/>
<path class="st1" d="M33.2,198.7l-14.5-1.5c0.3-0.1,0.5-0.2,0.7-0.3c0.2-0.1,0.4-0.2,0.7-0.3l14.1-7.2l0.3-2.6L16.6,185l-0.3,2.3
	l14.5,1.5c-0.3,0.1-0.5,0.2-0.8,0.3c-0.3,0.1-0.5,0.3-0.9,0.4l-13.8,7l-0.3,2.6L33,201L33.2,198.7z"/>
<polygon class="st1" points="18.6,238.9 34.2,236.9 34,234.5 18.3,236.5 17.6,230.9 15.5,231.1 17.2,244.8 19.3,244.5 "/>
<path class="st1" d="M71,102l-2.9-4.9l4.5-5.5l5.4,2l1.7-2l-18.1-6.4l-1.7,2l9.5,16.7L71,102z M62.7,88l7.8,2.9L67,95.1L62.7,88z"/>
<path class="st1" d="M82.6,88.6L72.4,78.3c0.3,0.1,0.5,0.2,0.7,0.3c0.2,0.1,0.4,0.2,0.7,0.2l15.4,3.3l1.9-1.9L78.3,67.6l-1.6,1.6
	l10.2,10.3c-0.2-0.1-0.4-0.2-0.8-0.3c-0.3-0.1-0.6-0.2-0.9-0.3l-15.1-3.3l-1.9,1.9l12.6,12.7L82.6,88.6z"/>
<path class="st1" d="M98.6,71.1c2.2,0.5,4.3,0,6.3-1.5c1.8-1.4,2.8-2.9,3.1-4.8c0.3-1.9-0.2-3.7-1.4-5.5l-1.9,1.4
	c0.9,1.3,1.2,2.5,1,3.8c-0.2,1.3-0.9,2.4-2,3.2c-1.4,1-2.9,1.4-4.5,0.9s-3.1-1.5-4.4-3.2c-1.4-1.9-2-3.6-2-5.2s0.8-3,2.2-4.1
	c1.1-0.9,2.1-1.3,3.2-1.3c1,0,2,0.4,3,1.2l1.9-1.4c-1.3-1.3-2.7-2-4.3-2c-1.7-0.1-3.3,0.5-4.9,1.8c-2,1.5-3.2,3.4-3.3,5.6
	c-0.2,2.2,0.5,4.4,2.2,6.7C94.4,69.1,96.4,70.6,98.6,71.1z"/>
<path class="st1" d="M35.2,182.6l-4.9-2.9l1.4-6.9l5.6-0.8l0.5-2.6l-18.9,3l-0.5,2.6l16.3,10.1L35.2,182.6z M28.4,178.5l-7.2-4.3
	l8.3-1.1L28.4,178.5z"/>
<rect x="87.8" y="61.3" transform="matrix(0.7551 -0.6556 0.6556 0.7551 -24.2332 75.5434)" class="st1" width="2.5" height="17.9"/>
<polygon class="st1" points="41.7,156.7 39.4,156 37,164.6 21.9,160.3 21.2,162.7 38.5,167.6 "/>
<polygon class="st1" points="68.9,104.8 67,103.5 60.9,112.2 56,108.7 61.5,100.8 59.7,99.6 54.3,107.5 49.9,104.4 55.8,95.9 
	54,94.7 46.7,105.2 61.4,115.4 "/>
<path class="st1" d="M36,145.5c2.7,1.2,5.1,1.4,7.2,0.7c2.1-0.8,3.8-2.3,4.8-4.8c1-2.5,1.1-4.7,0.2-6.7c-0.9-2-2.7-3.7-5.5-4.9
	c-2.7-1.2-5.1-1.4-7.2-0.7c-2.1,0.7-3.8,2.3-4.8,4.7c-1,2.5-1.1,4.7-0.2,6.7C31.5,142.7,33.3,144.3,36,145.5z M32.7,134.8
	c0.8-1.7,2-2.8,3.5-3.2c1.6-0.4,3.5-0.2,5.5,0.7c2.1,0.9,3.6,2.1,4.3,3.6c0.8,1.4,0.8,3.1,0,4.8c-0.8,1.7-2,2.8-3.6,3.2
	c-1.6,0.4-3.5,0.3-5.5-0.7c-2.1-0.9-3.6-2.1-4.3-3.6C31.9,138.1,31.9,136.5,32.7,134.8z"/>
<path class="st1" d="M44,126.9c2.6,1.5,5.1,2,7.2,1.6c2.2-0.4,3.9-1.7,5.2-3.9c1.1-1.9,1.4-3.8,0.9-5.6c-0.4-1.9-1.6-3.3-3.4-4.5
	l-1.2,2c1.3,0.8,2,1.8,2.4,3.1c0.3,1.3,0.2,2.6-0.6,3.8c-0.9,1.5-2.1,2.4-3.8,2.6c-1.6,0.3-3.5-0.2-5.4-1.2c-2-1.1-3.3-2.5-3.9-3.9
	c-0.6-1.5-0.5-3.1,0.4-4.6c0.7-1.2,1.5-2,2.5-2.4c0.9-0.4,2-0.4,3.2-0.1l1.2-2c-1.7-0.7-3.3-0.8-4.9-0.2s-2.8,1.8-3.8,3.6
	c-1.3,2.2-1.5,4.4-0.9,6.5C40,123.8,41.6,125.6,44,126.9z"/>
<polygon class="st1" points="264.4,394.3 256.3,396.4 254.9,391.2 264.3,388.9 263.7,386.7 252,389.7 256.5,407 258.8,406.5 
	256.8,398.5 265,396.5 "/>
<path class="st1" d="M300.7,373.5c-2-0.9-4.3-0.6-6.7,0.6c-2.4,1.2-3.8,2.9-4.4,5c-0.6,2.1-0.3,4.6,1.1,7.2c1.4,2.6,3.1,4.3,5.1,5.2
	c2.1,0.9,4.3,0.6,6.7-0.6c2.4-1.2,3.8-2.9,4.4-5c0.6-2.1,0.2-4.6-1.1-7.2C304.5,376,302.8,374.3,300.7,373.5z M304.6,385.4
	c-0.3,1.6-1.4,2.9-3.1,3.7c-1.7,0.9-3.2,0.9-4.8,0.3c-1.5-0.7-2.8-2-3.8-4.1c-1-2-1.4-3.9-1-5.5c0.3-1.6,1.4-2.9,3.1-3.8
	c1.7-0.9,3.2-0.9,4.8-0.3c1.5,0.7,2.8,2,3.8,4.1C304.6,381.9,305,383.7,304.6,385.4z"/>
<path class="st1" d="M330.1,350.7l5,13.6c0.1,0.2,0.2,0.4,0.3,0.7c0.1,0.3,0.3,0.5,0.3,0.8c-0.1-0.1-0.3-0.3-0.4-0.3
	c-0.2-0.2-0.4-0.3-0.8-0.5l-12.1-7.9l-2.7,2.2l11.3,14l1.7-1.4l-9.6-11.9c0.3,0.2,0.4,0.3,0.7,0.5c0.3,0.2,0.4,0.3,0.6,0.4l12.1,7.8
	l1.8-1.4l-5-13.6c-0.1-0.3-0.2-0.5-0.3-0.8c-0.1-0.3-0.3-0.5-0.3-0.8l9.6,11.9l1.9-1.4l-11.2-14L330.1,350.7z"/>
<path class="st1" d="M287.6,390.1c0.5,1.4,0.4,2.7-0.1,3.9c-0.5,1.2-1.5,2-2.9,2.6c-1.6,0.6-3.2,0.5-4.6-0.3
	c-1.4-0.9-2.6-2.3-3.4-4.3c-0.9-2.1-1-4-0.5-5.5c0.5-1.5,1.5-2.6,3.2-3.3c1.3-0.5,2.4-0.6,3.4-0.3c1,0.3,1.9,0.9,2.5,2l2.2-0.9
	c-0.9-1.6-2-2.6-3.7-3.2s-3.3-0.4-5.2,0.3c-2.4,0.9-4,2.4-4.8,4.5c-0.8,2-0.7,4.4,0.3,7.1c1.1,2.8,2.6,4.8,4.6,5.9s4.1,1.2,6.5,0.3
	c2-0.8,3.5-2,4.3-3.8c0.9-1.7,0.9-3.6,0.2-5.7L287.6,390.1z"/>
<polygon class="st1" points="380.1,316.1 375,313.1 379.8,304.9 378.1,303.8 373.1,312.1 368.5,309.3 373.8,300.4 371.9,299.3 
	365.3,310.3 380.8,319.4 387.4,308.2 385.6,307.1 "/>
<polygon class="st1" points="347.5,356.1 343.3,351.8 350.2,345.1 348.7,343.6 341.9,350.3 338.1,346.4 345.6,339.2 344,337.6 
	334.8,346.6 347.4,359.4 356.7,350.3 355.1,348.7 "/>
<path class="st1" d="M248.1,392.6c-1.7-1.4-3.9-1.9-6.6-1.4c-2.6,0.4-4.5,1.5-5.8,3.5s-1.6,4.3-1.1,7.2c0.4,2.9,1.5,5.1,3.3,6.5
	c1.8,1.4,3.9,1.9,6.6,1.4s4.5-1.5,5.8-3.4c1.2-1.9,1.6-4.3,1.1-7.2C250.9,396.1,249.8,393.9,248.1,392.6z M248.2,405
	c-0.9,1.4-2.2,2.3-4,2.6c-1.9,0.3-3.4-0.1-4.7-1.2s-2-2.8-2.4-5.1c-0.3-2.3-0.1-4.2,0.7-5.5c0.9-1.4,2.2-2.3,4-2.6
	c1.9-0.3,3.4,0.1,4.6,1.2c1.3,1.1,2,2.8,2.4,5.1C249.3,401.8,249,403.6,248.2,405z"/>
<path class="st1" d="M373.5,318.5l-1.4,2c1.2,0.9,1.9,2,2,3.3s-0.2,2.6-1,3.8c-1,1.4-2.4,2.1-4,2.2c-1.7,0.1-3.4-0.5-5.2-1.8
	c-1.9-1.4-3.1-2.8-3.5-4.3c-0.4-1.5-0.2-3.1,0.9-4.5c0.8-1.1,1.7-1.8,2.7-2.1c1-0.3,2-0.3,3.2,0.3l1.4-2c-1.6-0.9-3.2-1.1-4.8-0.7
	c-1.6,0.4-3,1.4-4.2,3.2c-1.4,2-2,4.2-1.5,6.4s1.9,4.1,4.1,5.7c2.5,1.8,4.9,2.6,7.1,2.4s4.1-1.3,5.5-3.3c1.3-1.8,1.8-3.6,1.5-5.5
	C376.3,321.5,375.2,319.9,373.5,318.5z"/>
<path class="st1" d="M366.9,336.9c-0.3-0.1-0.8-0.3-1.3-0.8l-2.4-1.8c-0.9-0.7-1.6-1-2.1-1.1c-0.5-0.1-1.1,0.1-1.7,0.5
	c0.3-0.9,0.3-1.7,0-2.5c-0.3-0.8-0.8-1.4-1.4-2.1c-0.8-0.7-1.5-1.1-2.4-1.3c-0.9-0.2-1.6-0.1-2.5,0.2c-0.4,0.2-0.9,0.4-1.3,0.8
	c-0.4,0.3-1,0.9-1.7,1.8l-4.5,5.3l13.6,11.8l1.5-1.8l-5.8-5l2.6-3c1.1-1.3,2-2,2.6-2.1c0.6-0.2,1.3,0.3,2.3,0.9l1.9,1.4
	c0,0,0,0,0.1,0.1c1,0.8,1.7,1.1,2.1,1.2l1.9-2.1l-0.3-0.3C367.5,337,367.2,337,366.9,336.9z M356.1,336.4l-2.7,3.2l-4.6-4l2.7-3.2
	c1-1.2,1.9-1.9,2.6-2c0.7-0.2,1.4,0.1,2.3,0.8c0.9,0.8,1.3,1.5,1.2,2.3C357.5,334.2,357,335.2,356.1,336.4z"/>
<path class="st1" d="M314.7,362.5l3.6,14.1c0.1,0.3,0.1,0.4,0.2,0.7s0.2,0.5,0.3,0.8c-0.1-0.1-0.3-0.3-0.4-0.4
	c-0.2-0.2-0.4-0.3-0.8-0.6l-11.2-9.1l-2.9,1.9l9.7,15.1l1.9-1.2l-8.3-12.9c0.2,0.3,0.4,0.4,0.6,0.6c0.2,0.2,0.4,0.3,0.6,0.5
	l11.2,9.1l2-1.3l-3.6-14.1c-0.1-0.3-0.2-0.5-0.3-0.8c-0.1-0.3-0.2-0.5-0.3-0.8l8.3,12.9l2-1.3l-9.7-15.1L314.7,362.5z"/>
<path class="st1" d="M66.8,321c-1.4-0.3-2.9,0-4.1,1c-1,0.8-1.6,1.7-1.7,2.8c-0.1,1,0.4,2.7,1.4,5c0,0.1,0.1,0.3,0.2,0.4
	c1.3,2.8,1.4,4.6,0.3,5.5c-0.8,0.6-1.7,0.8-2.6,0.5c-0.9-0.3-1.9-0.9-2.7-2c-0.9-1.1-1.3-2.2-1.2-3.4c0.1-1.1,0.7-2.1,1.6-2.9
	l-1.4-1.9c-1.5,1.4-2.4,2.8-2.6,4.4c-0.2,1.6,0.5,3.3,1.8,5c1.3,1.7,2.7,2.6,4.3,3c1.5,0.3,3.1,0,4.4-1.1c0.6-0.4,1-0.9,1.3-1.4
	c0.3-0.6,0.4-1.1,0.5-1.8c0-0.9-0.3-2.1-1.2-3.9C65,330.1,65,330,65,330c-0.1-0.3-0.3-0.5-0.4-0.9c-1.3-2.7-1.4-4.5-0.3-5.4
	c0.7-0.5,1.4-0.7,2.3-0.4c0.9,0.3,1.6,0.9,2.4,1.8c0.8,1,1.1,2,1.1,3c-0.1,0.9-0.5,1.9-1.4,2.6l1.4,1.8c1.4-1.1,2.1-2.4,2.2-3.9
	c0.1-1.5-0.4-3.1-1.7-4.6C69.6,322.2,68.3,321.4,66.8,321z"/>
<path class="st1" d="M90.2,357.4c1.9-2,2.9-4.1,2.9-6.1c0-2-0.9-3.8-2.7-5.5l-5-4.6l-12.1,13.1l4.9,4.6c1.8,1.7,3.8,2.4,5.9,2.1
	C86.2,360.7,88.2,359.6,90.2,357.4z M83.7,358.6c-1.4,0.3-2.8-0.3-4.2-1.4l-3.1-2.8l9.3-10.1l3.1,2.8c1.3,1.2,1.9,2.6,1.8,4
	c-0.1,1.4-0.9,3.1-2.4,4.6C86.7,357.4,85.1,358.4,83.7,358.6z"/>
<polygon class="st1" points="93.8,361.4 101.3,367.3 102.6,365.7 95,359.8 98.3,355.5 106.6,361.9 107.9,360.1 97.8,352.3 
	86.8,366.5 97.1,374.5 98.5,372.7 90.1,366.2 "/>
<path class="st1" d="M115.8,374.7c0.8-0.4,1.4-1,2-1.9c0.6-0.9,0.9-1.8,1-2.6c0.1-0.9-0.1-1.7-0.4-2.4c-0.3-0.4-0.6-0.9-0.9-1.3
	c-0.4-0.4-1.1-0.9-2-1.4l-5.5-3.6l-9.8,15l2,1.4l4.1-6.3l3.1,2c1.1,0.8,2,1.2,2.5,1.4c0.5,0.3,1.1,0.3,1.5,0.3
	C114.2,375.3,115.1,375.2,115.8,374.7z M110.8,371.9l-3.4-2.2l3.2-5l3.6,2.3c1.1,0.7,1.8,1.4,2,2.1s0,1.4-0.5,2.4
	c-0.6,0.9-1.3,1.4-2,1.5C112.9,373,112,372.7,110.8,371.9z"/>
<path class="st1" d="M61.2,311.3l-1.3-2.1l-9.6,5.7c-1.4,0.9-2.6,1.2-3.8,0.9c-1.1-0.3-2-1-2.8-2.3c-0.8-1.4-1-2.6-0.8-3.6
	c0.3-1,1.2-2,2.6-2.9l9.6-5.7l-1.3-2.1l-9.6,5.7c-2.1,1.3-3.4,2.6-3.8,4.3c-0.5,1.6-0.2,3.3,1,5.3c1.2,2,2.7,3.3,4.3,3.8
	c1.6,0.4,3.6,0,5.6-1.2L61.2,311.3z"/>
<rect x="63.7" y="342.2" transform="matrix(0.7501 -0.6614 0.6614 0.7501 -210.8846 128.8983)" class="st1" width="2.7" height="2.5"/>
<polygon class="st1" points="225.9,393.4 212.2,393.9 212.2,396 217.9,395.9 218.4,411.7 220.9,411.6 220.4,395.8 226,395.6 "/>
<rect x="48.9" y="323.2" transform="matrix(0.8247 -0.5655 0.5655 0.8247 -174.6868 85.275)" class="st1" width="2.7" height="2.5"/>
<path class="st1" d="M126.5,371.7l-14.3,12.6l2.2,1.2l4.3-3.8l6.2,3.3l-0.9,5.6l2.3,1.3L129,373L126.5,371.7z M125.1,382.9l-4.9-2.6
	l6.2-5.6L125.1,382.9z"/>
<path class="st1" d="M207.9,408.3c-0.1-0.3-0.2-0.4-0.3-0.7c-0.1-0.3-0.3-0.5-0.4-0.9l-7.8-13.5l-2.6-0.2l-0.9,17.9l2.3,0.1
	l0.8-14.5c0.1,0.3,0.2,0.5,0.3,0.7c0.1,0.3,0.2,0.4,0.3,0.7l7.9,13.6l2.6,0.2l0.9-17.9l-2.3-0.1L207.9,408.3z"/>
<path class="st1" d="M168,402.3c-0.1,0.2-0.3,0.4-0.3,0.6c-0.1,0.3-0.3,0.4-0.3,0.8c0-0.2,0-0.3,0-0.6c0-0.3,0-0.5-0.1-0.9
	l-1.1-14.4l-3.4-0.8l-4.2,17.5l2.2,0.5l3.6-14.8c0,0.3,0,0.6,0,0.9s0,0.5,0.1,0.8l1.2,14.4l2.2,0.5l7.7-12.3
	c0.2-0.3,0.3-0.5,0.4-0.7c0.2-0.3,0.3-0.5,0.3-0.7l-3.6,14.8l2.3,0.5l4.2-17.5l-3.4-0.9L168,402.3z"/>
<polygon class="st1" points="179.4,409 192.2,410.8 192.6,408.6 182.1,407 183,401.1 192.4,402.4 192.7,400.4 183.2,399 184,393.7 
	194.2,395.2 194.6,393 181.8,391.2 "/>
<polygon class="st1" points="161.6,386.5 148.6,382.1 147.8,384.1 153.2,386 148.2,400.9 150.5,401.7 155.5,386.8 160.9,388.5 "/>
<path class="st1" d="M145.3,381.4c-0.3-0.3-0.7-0.7-1.1-1c-0.4-0.3-1.2-0.7-2.2-1.1l-6.4-2.7l-7.1,16.5l2.2,0.9l3.1-7.1l3.6,1.5
	c1.6,0.7,2.5,1.3,2.7,1.8s0.2,1.3-0.3,2.5l-0.8,2.2c0,0,0,0,0,0.1c-0.4,1.2-0.6,2-0.5,2.4l2.6,1.1l0.2-0.4c-0.2-0.3-0.3-0.5-0.3-0.9
	c0-0.3,0.1-0.8,0.3-1.4l1-2.8c0.3-1,0.5-1.9,0.4-2.4c-0.1-0.5-0.4-1-0.9-1.5c0.9,0,1.7-0.3,2.3-0.8c0.7-0.4,1.2-1.1,1.5-2
	c0.4-0.9,0.6-1.8,0.5-2.6C146.2,382.8,145.9,382.1,145.3,381.4z M143.5,385.4c-0.4,1-1,1.7-1.8,1.9c-0.8,0.2-1.9,0-3.2-0.6l-3.8-1.6
	l2.4-5.5l3.8,1.6c1.4,0.6,2.4,1.3,2.7,1.9C143.9,383.6,143.9,384.4,143.5,385.4z"/>
</svg>
