<?xml version="1.0" encoding="utf-8"?>
<!-- Generator: Adobe Illustrator 22.0.0, SVG Export Plug-In . SVG Version: 6.00 Build 0)  -->
<svg version="1.1" id="Vrstva_1" xmlns="http://www.w3.org/2000/svg" xmlns:xlink="http://www.w3.org/1999/xlink" x="0px" y="0px"
	 viewBox="0 0 425.2 425.2" style="enable-background:new 0 0 425.2 425.2;" xml:space="preserve">
<style type="text/css">
	.st0{fill:#9D9D9C;}
</style>
<path class="st0" d="M198.45,135.32c1.11-1.11,2.23-1.11,3.34-1.11c8.91-1.11,17.82-3.34,26.74-4.46h4.46
	c10.03,0,18.94,0,27.85,2.23l1.11-1.11c2.23,2.23,5.57,1.11,7.8,3.34c3.34,0,5.57,3.34,10.03,4.46c1.11,1.11,4.46,0,6.68,2.23
	c1.11,2.23,6.68,1.11,8.91,2.23c1.11,3.34,4.46,2.23,7.8,3.34l2.23,3.34h1.11V15H159.46l-1.11,3.34V157.6
	c4.46-2.23,7.8-4.46,12.25-6.68C179.51,145.34,188.43,140.89,198.45,135.32z M265.3,18.34h25.62c10.03,2.23,12.25,12.25,13.37,20.05
	c-1.11,1.11-1.11,2.23,0,3.34c0,10.03,0,22.28-4.46,31.19c0,1.11-1.11,1.11-1.11,2.23c-3.34,4.46-7.8,8.91-15.6,8.91H265.3V18.34z
	 M201.8,18.34h11.14c2.23,14.48,4.46,27.85,6.68,41.22c0-2.23,0-5.57,1.11-8.91l4.46-32.31h13.37c1.11,14.48,3.34,26.74,4.46,40.11
	v1.11c2.23-13.37,4.46-26.74,6.68-41.22h11.14c-3.34,22.28-6.68,44.56-11.14,65.73h-12.25l-5.57-41.22h-1.11
	c-2.23,12.25-3.34,27.85-5.57,41.22c-3.34,1.11-7.8,0-12.25,0L201.8,19.46V18.34z M162.8,18.34h25.62
	c7.8,2.23,10.03,7.8,12.25,14.48c0,2.23,0,5.57,1.11,8.91c0,8.91,0,18.94-3.34,27.85c0,1.11,0,2.23-1.11,3.34
	c0,1.11-2.23,2.23-2.23,3.34c-2.23,4.46-6.68,7.8-12.25,7.8H162.8V18.34z M188.43,37.28c-2.23-5.57-8.91-4.46-14.48-4.46V70.7
	c3.34-1.11,6.68,0,10.03-1.11C192.88,62.9,191.77,47.31,188.43,37.28z M114.9,363.7c-5.57-3.34-11.14-8.91-14.48-14.48
	c-2.23-2.23-1.11-6.68-3.34-10.03c-5.57-3.34-10.03-10.03-10.03-17.82c-3.34-1.11-5.57-4.46-6.68-7.8
	c-4.46-14.48-8.91-27.85-11.14-42.33c0-1.11-1.11-1.11-1.11-1.11c-1.11-5.57-1.11-12.25,0-16.71c1.11-2.23,2.23-5.57,1.11-7.8
	c0-3.34-2.23,0-3.34-2.23c1.11-3.34,0-8.91,3.34-11.14c0-1.11,1.11,0,2.23,0c0-1.11,1.11-2.23,1.11-3.34
	c-4.46-1.11,1.11-3.34,0-5.57c1.11-2.23,3.34-2.23,5.57-3.34c1.11-2.23-2.23-3.34-1.11-6.68c0-1.11-2.23,0-2.23,0
	c-3.34,6.68-8.91,10.03-12.25,16.71c-1.11,1.11,0,5.57-3.34,5.57c-2.23,0-1.11,3.34-2.23,4.46c-1.11,4.46-5.57,5.57-7.8,10.03
	c-2.23,1.11-1.11,4.46-3.34,5.57c-2.23,4.46-4.46,7.8-4.46,13.37v17.82c1.11,7.8,3.34,14.48,5.57,21.17
	c2.23,6.68,5.57,13.37,10.03,18.94c5.57,12.25,16.71,20.05,23.4,31.19c3.34,5.57,10.03,7.8,14.48,12.25
	c3.34,3.34,8.91,5.57,16.71,5.57c1.11-2.23,4.46-1.11,4.46-3.34C116.01,369.27,118.24,365.92,114.9,363.7z M288.69,67.36
	c5.57-7.8,4.46-20.05,2.23-30.08c-2.23-5.57-8.91-4.46-14.48-4.46V70.7C280.89,69.59,286.46,71.82,288.69,67.36z M146.09,385.98
	c-2.23-1.11-1.11-4.46-2.23-5.57c-2.23-6.68-10.03-6.68-15.6-5.57c-1.11-1.11-2.23,0-3.34-1.11c-2.23,0-3.34,0-5.57,1.11
	c-1.11,2.23-3.34,3.34-3.34,6.68c3.34,3.34,7.8,5.57,12.25,8.91c4.46,2.23,11.14,1.11,15.6,1.11c2.23,0,3.34-2.23,5.57-2.23
	c2.23,2.23,4.46,2.23,6.68,3.34c1.11-2.23,1.11-5.57,1.11-8.91C152.78,382.63,149.44,385.98,146.09,385.98z M363.33,234.47
	c-2.23-1.11,0-2.23,0-2.23c1.11-1.11,0-2.23,0-3.34c-1.11-1.11-2.23-2.23-2.23-3.34c-1.11-1.11,1.11-1.11,0-2.23
	c-2.23,0-1.11-3.34-1.11-5.57c-2.23-1.11-2.23-3.34-2.23-5.57c-1.11,1.11-1.11,1.11-2.23,1.11c-1.11-2.23,0-3.34,1.11-4.46
	l-6.68-10.03l-1.11-2.23c0-2.23-3.34-2.23-3.34-4.46c1.11-3.34-1.11-3.34-2.23-5.57c-7.8-8.91-14.48-18.94-23.39-27.85
	c-2.23-1.11-5.57-1.11-6.68-3.34c-3.34,1.11-1.11-3.34-2.23-3.34c-2.23,0-3.34-1.11-3.34,0c-1.11,12.25-1.11,24.51-1.11,35.65
	c-5.57-4.46-12.25-6.68-17.82-11.14c-1.11-1.11-3.34-2.23-5.57-2.23c-5.57-5.57-11.14-8.91-17.82-12.25
	c-11.14-4.46-23.39-5.57-33.42-10.03c-3.34,1.11-4.46-2.23-7.8-1.11c-3.34,1.11-8.91,2.23-13.37,3.34
	c-7.8,3.34-17.82,4.46-24.51,8.91c-2.23,1.11-4.46,2.23-6.68,4.46c-5.57,3.34-11.14,6.68-16.71,10.03
	c-1.11,1.11-3.34,2.23-4.46,1.11v-18.94h-1.11c-2.23,0-4.46,1.11-6.68,3.34c-1.11,2.23-3.34,4.46-6.68,5.57
	c-10.03,10.03-18.94,22.28-24.51,36.76c-3.34,10.03-8.91,20.05-7.8,33.42c3.34-2.23,3.34,2.23,6.68,1.11
	c2.23-1.11,3.34,2.23,4.46,3.34c1.11,1.11,3.34,2.23,3.34,4.46c-2.23,1.11-5.57,0-7.8-1.11c-1.11-1.11-1.11-3.34-3.34-3.34
	c-3.34,2.23-2.23,8.91-2.23,11.14v4.46c4.46,8.91,10.03,17.82,14.48,26.74c0,1.11-1.11,2.23,0,3.34c3.34,0,3.34,3.34,5.57,4.46
	c1.11,0,1.11,2.23,1.11,2.23c0,1.11,2.23,0,3.34,1.11c1.11,11.14,11.14,17.82,20.05,21.17v-18.94h1.11
	c6.68,5.57,14.48,8.91,22.28,12.25c8.91,3.34,20.05,3.34,31.19,2.23c12.25-3.34,24.51-7.8,35.65-15.6
	c6.68-6.68,8.91-15.6,12.25-24.51c2.23-7.8-1.11-15.6-3.34-22.28c-3.34-8.91-8.91-20.05-20.05-20.05c-2.23,1.11-3.34-1.11-4.46,0
	c-4.46-1.11-6.68,1.11-10.03,3.34c-2.23,1.11-3.34,4.46-3.34,7.8c2.23,3.34,5.57,3.34,8.91,3.34c1.11,0,1.11,1.11,1.11,2.23
	c2.23,3.34,4.46,6.68,3.34,11.14c-3.34,4.46-8.91,7.8-14.48,10.03c-4.46,3.34-12.25,2.23-18.94,2.23
	c-6.68-2.23-11.14-7.8-14.48-13.37c-3.34-4.46-2.23-11.14-2.23-17.82c1.11-5.57,3.34-10.03,6.68-14.48
	c1.11-7.8,10.03-8.91,12.25-15.6c5.57-2.23,11.14-5.57,16.71-7.8c3.34,1.11,5.57-2.23,8.91-1.11c2.23,1.11,1.11-2.23,2.23-2.23
	h13.37c14.48,1.11,24.51,11.14,33.42,21.17c6.68,10.03,13.37,21.17,13.37,34.54c0,2.23,0,2.23,0,4.46c0,10.03-3.34,20.05-7.8,27.85
	c-5.57,10.03-14.48,16.71-21.17,24.51c-4.46,6.68-12.25,10.03-20.05,12.25c-4.46,1.11-7.8,3.34-11.14,5.57
	c-7.8,0-15.6,2.23-22.28,4.46c-1.11-1.11-3.34,0-3.34-1.11c-1.11-2.23-3.34,0-4.46-1.11c-2.23,2.23-4.46-1.11-5.57-1.11
	c-8.91,1.11-15.6-2.23-22.28-3.34c-4.46-2.23-10.03-2.23-12.25-5.57c-1.11,0-1.11,1.11-1.11,1.11v60.16c1.11,0,1.11,0,1.11,0h16.71
	c3.34-1.11,0,4.46,4.46,3.34c7.8-2.23,10.03,5.57,16.71,7.8c1.11-1.11,2.23-1.11,2.23-2.23c-1.11-1.11-1.11-2.23-1.11-2.23
	c0-1.11,1.11-1.11,2.23-1.11c8.91-1.11,16.71-3.34,24.51-4.46c2.23-2.23,6.68-2.23,10.03-2.23c4.46,0,7.8-2.23,10.03-4.46
	c18.94,0,33.42-7.8,49.02-14.48c5.57-2.23,7.8-8.91,12.25-12.25c1.11,0,0,2.23,1.11,2.23v7.8c0,1.11-1.11,3.34,0,4.46
	c-1.11,0-1.11,1.11,0,1.11v4.46c-1.11,0-3.34,3.34-4.46,3.34c-3.34,1.11-5.57,3.34-7.8,6.68c-3.34,2.23-8.91,3.34-12.25,6.68
	c-10.03,3.34-18.94,5.57-28.97,8.91c-6.68,2.23-13.37,4.46-21.17,5.57c-7.8,0-17.82,1.11-24.51-2.23c-3.34-1.11-7.8,0-7.8-4.46
	c-1.11-1.11-2.23-1.11-3.34-1.11c-6.68,1.11-11.14,4.46-16.71,5.57c-4.46,1.11-6.68-2.23-11.14-2.23c-1.11-1.11-4.46-1.11-5.57-2.23
	c-2.23-1.11-4.46-2.23-5.57-1.11c-1.11,6.68-1.11,11.14,0,17.82h149.28v-40.11c1.11,0,1.11,0,1.11-1.11
	c3.34-2.23,6.68-5.57,11.14-7.8c6.68-6.68,11.14-15.6,15.6-23.39c0-6.68,3.34-11.14,6.68-16.71c1.11-4.46,3.34-7.8,6.68-11.14
	c1.11-4.46,3.34-7.8,4.46-12.25c-1.11-7.8,3.34-13.37,5.57-20.05v-11.14c0,0,1.11-1.11,0-1.11c2.23-5.57,3.34-10.03,4.46-14.48
	c2.23-3.34,0-7.8,1.11-12.25C362.22,237.81,364.45,235.58,363.33,234.47z M157.23,297.97c-1.11,0-2.23-1.11-2.23-1.11
	c-13.37-11.14-21.17-25.62-25.62-40.11c-3.34-4.46-2.23-12.25-2.23-17.82c1.11-10.03,5.57-17.82,8.91-26.74
	c0-1.11-1.11-2.23,1.11-2.23c5.57-10.03,12.25-18.94,20.05-26.74V297.97z M334.37,287.94c-4.46,20.05-12.25,36.76-22.28,53.47
	c-2.23,1.11-3.34,3.34-4.46,5.57l-1.11-157.08c1.11,0,2.23,1.11,3.34,2.23c11.14,12.25,18.94,26.74,23.39,43.45
	c-1.11,4.46,0,11.14,1.11,15.6C334.37,264.55,335.48,277.91,334.37,287.94z"/>
</svg>
