<?xml version="1.0" encoding="utf-8"?>
<!-- Generator: Adobe Illustrator 21.1.0, SVG Export Plug-In . SVG Version: 6.00 Build 0)  -->
<svg version="1.1" id="Layer_1" xmlns="http://www.w3.org/2000/svg" xmlns:xlink="http://www.w3.org/1999/xlink" x="0px" y="0px"
	 width="425.2px" height="85px" viewBox="0 0 425.2 85" style="enable-background:new 0 0 425.2 85;" xml:space="preserve">
<style type="text/css">
	.st0{fill:#9D9D9C;}
	.st1{display:none;}
	.st2{display:inline;fill:#DDDDDD;}
	.st3{font-family:'HelveticaNeue-Bold';}
	.st4{font-size:55.5019px;}
	.st5{letter-spacing:-1;}
</style>
<g>
	<g>
		<path class="st0" d="M166.5,15.4v10.4h-29.6v12H164v9.6h-27.1v13.7h30.2v10.4h-42.5v-56H166.5z"/>
		<path class="st0" d="M209.4,30.4c-0.7-1.2-1.6-2.2-2.7-3.1c-1.1-0.9-2.3-1.6-3.7-2.1c-1.4-0.5-2.8-0.7-4.4-0.7
			c-2.8,0-5.1,0.5-7.1,1.6c-1.9,1.1-3.5,2.5-4.7,4.3c-1.2,1.8-2.1,3.9-2.6,6.2c-0.5,2.3-0.8,4.7-0.8,7.1c0,2.4,0.3,4.6,0.8,6.9
			c0.5,2.2,1.4,4.2,2.6,6c1.2,1.8,2.8,3.2,4.7,4.3c1.9,1.1,4.3,1.6,7.1,1.6c3.8,0,6.7-1.1,8.8-3.5c2.1-2.3,3.4-5.3,3.9-9.1h11.9
			c-0.3,3.5-1.1,6.7-2.4,9.5c-1.3,2.8-3,5.2-5.2,7.2c-2.1,2-4.7,3.5-7.5,4.6c-2.9,1-6,1.6-9.5,1.6c-4.3,0-8.1-0.7-11.6-2.2
			c-3.4-1.5-6.3-3.5-8.7-6.2c-2.4-2.6-4.2-5.7-5.4-9.2c-1.3-3.5-1.9-7.3-1.9-11.4c0-4.2,0.6-8.1,1.9-11.6c1.3-3.6,3.1-6.7,5.4-9.4
			c2.4-2.7,5.2-4.8,8.7-6.3s7.3-2.3,11.6-2.3c3.1,0,6,0.4,8.7,1.3c2.7,0.9,5.2,2.2,7.4,3.9c2.2,1.7,4,3.8,5.4,6.3s2.3,5.4,2.7,8.6
			h-11.9C210.6,32.8,210.1,31.5,209.4,30.4z"/>
		<path class="st0" d="M247,15.4l13.1,38.5h0.2l12.4-38.5H290v56h-11.5V31.7h-0.2l-13.7,39.7h-9.5l-13.7-39.3h-0.2v39.3h-11.5v-56
			H247z"/>
		<path class="st0" d="M340,71.4l-9.5-38.1h-0.2L321,71.4h-12.5l-14.8-56H306l8.9,38.1h0.2l9.7-38.1h11.5l9.6,38.6h0.2l9.2-38.6
			h12.1l-15.1,56H340z"/>
		<path class="st0" d="M410.4,15.4v10.4h-27.1v12.9h23.5v9.6h-23.5v23.1H371v-56H410.4z"/>
	</g>
	<path class="st0" d="M105.6,48.7C102.8,64,89.2,75.4,73.6,75.4c-4.5,0-9.4-1.2-13.5-2.9c-4.3,2-9.1,2.9-13.9,2.9
		c-15.6,0-29.2-11.2-32-26.7l20.1,0c2.2,5,7.3,8.2,12.7,8.2c5.9,0,11.3-4,13.3-9.5c1.9,5.6,7.3,9.5,13.3,9.5c5.6,0,10.7-3.2,13-8.3
		L105.6,48.7z"/>
	<path class="st0" d="M13.9,46.4h27.5v-7.5H13.9C13.4,41.4,13.5,44,13.9,46.4"/>
	<path class="st0" d="M105.6,36.7C102.8,21.4,89.2,10,73.6,10c-4.5,0-9.4,1.1-13.5,3c-4.3-2.1-9.1-3-13.9-3
		c-15.6,0-29.2,11.2-32,26.6l20.1,0c2.2-5,7.3-8.2,12.7-8.2c5.9,0,11.3,4,13.3,9.5c1.9-5.6,7.3-9.5,13.3-9.5c5.6,0,10.7,3.2,13,8.3
		L105.6,36.7z"/>
</g>
<text transform="matrix(1 0 0 1 146.3138 63.0317)" class="st1"><tspan x="0" y="0" class="st2 st3 st4 st5">E</tspan><tspan x="34.6" y="0" class="st2 st3 st4 st5">C</tspan><tspan x="74.4" y="0" class="st2 st3 st4 st5">M</tspan><tspan x="123.3" y="0" class="st2 st3 st4 st5">W</tspan><tspan x="174.4" y="0" class="st2 st3 st4">F</tspan></text>
</svg>
